# xmcd
#
# Track frame offsets:
#	150
#	20606
#	47298
#	67827
#	84813
#	110815
#	133759
#	152943
#	173991
#	191161
#
# Disc length: 2925 seconds
#
# Revision: 1
# Processed by: cddbd v1.5.1PL0 Copyright (c) Steve Scherf et al.
# Submitted via: audiograbber 1.83.01
#
DISCID=800b6b0a
DTITLE=Cal Batchelor Band - Roadworthy
DYEAR=2003
DGENRE=Blues
TTITLE0=You
TTITLE1=Love My Baby
TTITLE2=Healer
TTITLE3=Got Enough
TTITLE4=Dead and Gone
TTITLE5=Cheat Me
TTITLE6=Been Waitin'
TTITLE7=Forget The Rest
TTITLE8=Nobody Like You
TTITLE9=Ilona May
EXTD=
EXTT0=
EXTT1=
EXTT2=
EXTT3=
EXTT4=
EXTT5=
EXTT6=
EXTT7=
EXTT8=
EXTT9=
PLAYORDER=
